<?xml version="1.0" encoding="UTF-8"?>
<svg id="Layer_2" data-name="Layer 2" xmlns="http://www.w3.org/2000/svg" viewBox="0 0 109.1 21.19">
  <defs>
    <style>
      .cls-1 {
        opacity: .53;
      }

      .cls-2 {
        fill: #8ebf25;
      }

      .cls-3 {
        fill: #f4ffd9;
      }
    </style>
  </defs>
  <g id="Layer_1-2" data-name="Layer 1">
    <g class="cls-1">
      <g>
        <path class="cls-3" d="M6.93,5.33c.89-.54,1.91-.8,3.06-.8,1.07,0,2.01.23,2.83.7.82.47,1.45,1.17,1.9,2.11h4.54c-.66-1.99-1.81-3.55-3.46-4.68-1.65-1.13-3.58-1.69-5.77-1.69-1.88,0-3.57.43-5.08,1.28-1.51.85-2.7,2.05-3.58,3.58C.48,7.36.04,9.1.04,11.03s.44,3.66,1.31,5.18c.87,1.52,2.07,2.71,3.58,3.56,1.51.85,3.21,1.28,5.08,1.28,2.22,0,4.15-.56,5.79-1.68,1.64-1.12,2.79-2.68,3.45-4.69h-4.54c-.45.94-1.08,1.65-1.9,2.13-.82.48-1.76.72-2.83.72-1.15,0-2.16-.27-3.06-.8-.89-.54-1.59-1.3-2.08-2.28-.5-.99-.75-2.13-.75-3.42s.25-2.46.75-3.44c.5-.98,1.19-1.73,2.08-2.27Z"/>
        <path class="cls-2" d="M10.02,21.1c-1.88,0-3.59-.43-5.11-1.29-1.51-.85-2.72-2.06-3.59-3.58-.87-1.52-1.32-3.27-1.32-5.2s.44-3.69,1.32-5.22c.87-1.53,2.08-2.74,3.59-3.59,1.51-.85,3.23-1.29,5.11-1.29,2.2,0,4.15.57,5.8,1.7,1.65,1.13,2.82,2.71,3.48,4.7l.02.06h-4.62v-.02c-.46-.93-1.09-1.63-1.9-2.09-.81-.46-1.75-.7-2.81-.7-1.13,0-2.15.27-3.03.8-.88.53-1.58,1.29-2.07,2.25-.49.97-.74,2.12-.74,3.42s.25,2.43.74,3.4c.49.97,1.19,1.74,2.07,2.26.88.53,1.9.8,3.03.8,1.06,0,2-.24,2.81-.71.81-.47,1.44-1.18,1.88-2.11v-.02h4.63l-.02.06c-.66,2.01-1.82,3.59-3.47,4.71-1.64,1.12-3.6,1.68-5.81,1.68ZM10.02,1.02c-1.86,0-3.56.43-5.06,1.28-1.5.85-2.7,2.05-3.56,3.56C.53,7.37.09,9.11.09,11.03s.44,3.65,1.3,5.16c.87,1.51,2.06,2.7,3.56,3.55,1.5.85,3.2,1.28,5.06,1.28,2.2,0,4.14-.56,5.76-1.67,1.61-1.1,2.76-2.65,3.42-4.61h-4.45c-.45.93-1.09,1.64-1.91,2.12-.82.48-1.78.72-2.85.72-1.15,0-2.18-.27-3.08-.81s-1.6-1.31-2.1-2.3c-.5-.99-.75-2.15-.75-3.44s.25-2.48.75-3.46c.5-.98,1.21-1.75,2.1-2.29h0c.89-.54,1.93-.81,3.08-.81,1.07,0,2.03.24,2.85.71.81.47,1.46,1.18,1.91,2.11h4.45c-.66-1.95-1.81-3.49-3.43-4.6-1.64-1.12-3.57-1.68-5.75-1.68Z"/>
      </g>
      <g>
        <path class="cls-3" d="M34.58,5.83c-.92-.52-1.97-.77-3.15-.77-1.03,0-1.97.19-2.82.58-.84.39-1.52.92-2.03,1.59V.04h-3.94v20.84h3.94v-8.62c0-1.24.31-2.19.94-2.86.63-.67,1.49-1,2.58-1s1.92.33,2.54,1c.62.67.93,1.62.93,2.86v8.62h3.94v-9.15c0-1.41-.26-2.61-.77-3.62-.52-1-1.24-1.76-2.16-2.28Z"/>
        <path class="cls-2" d="M37.55,20.93h-4.03v-8.66c0-1.22-.31-2.17-.92-2.83-.61-.65-1.45-.99-2.5-.99s-1.93.33-2.55.99c-.62.65-.93,1.61-.93,2.83v8.66h-4.03V0h4.03v7.1c.5-.63,1.16-1.14,1.97-1.5.85-.39,1.8-.58,2.83-.58,1.18,0,2.25.26,3.18.78h0c.92.52,1.65,1.29,2.17,2.3.52,1.01.78,2.23.78,3.64v9.2ZM33.61,20.84h3.86v-9.11c0-1.39-.26-2.61-.77-3.6-.51-.99-1.23-1.75-2.14-2.26h0c-.91-.51-1.96-.77-3.13-.77-1.02,0-1.96.19-2.8.57-.83.38-1.51.91-2.01,1.58l-.08.1V.09h-3.86v20.76h3.86v-8.58c0-1.25.32-2.22.96-2.89.63-.67,1.51-1.01,2.61-1.01s1.94.34,2.57,1.01c.62.67.94,1.64.94,2.89v8.58Z"/>
      </g>
      <g>
        <path class="cls-3" d="M52.52,7.51c-.53-.71-1.23-1.3-2.1-1.77-.87-.47-1.89-.7-3.06-.7-1.33,0-2.54.33-3.62.99-1.08.66-1.93,1.6-2.56,2.82-.63,1.22-.94,2.62-.94,4.2s.31,3.01.94,4.24c.63,1.23,1.48,2.18,2.56,2.86,1.08.68,2.28,1.01,3.59,1.01,1.16,0,2.19-.24,3.08-.72.89-.48,1.59-1.08,2.1-1.82v2.28h3.97V5.28h-3.97v2.23ZM51.96,15.55c-.38.69-.88,1.21-1.52,1.58s-1.32.55-2.06.55-1.38-.19-2.01-.56c-.63-.37-1.14-.92-1.52-1.62s-.58-1.53-.58-2.46.19-1.75.58-2.44c.38-.69.89-1.21,1.51-1.56.62-.36,1.3-.54,2.03-.54s1.42.18,2.06.55c.64.37,1.15.89,1.52,1.58.38.69.56,1.51.56,2.47s-.19,1.78-.56,2.46Z"/>
        <path class="cls-2" d="M47.34,21.19c-1.32,0-2.53-.34-3.61-1.02-1.08-.68-1.95-1.64-2.58-2.88-.63-1.23-.95-2.66-.95-4.26s.32-3,.95-4.22c.63-1.22,1.5-2.18,2.58-2.83,1.08-.66,2.31-.99,3.64-.99,1.17,0,2.2.24,3.08.71.83.45,1.52,1.01,2.03,1.68v-2.14h4.06v15.69h-4.06v-2.19c-.5.69-1.19,1.26-2.03,1.72-.9.48-1.94.72-3.11.72ZM47.37,5.07c-1.32,0-2.53.33-3.6.98-1.07.65-1.92,1.59-2.55,2.8-.62,1.21-.94,2.61-.94,4.18s.32,3,.94,4.22c.62,1.22,1.48,2.17,2.55,2.84,1.07.67,2.27,1.01,3.57,1.01,1.15,0,2.18-.24,3.06-.71.88-.47,1.58-1.08,2.08-1.8l.08-.11v2.38h3.88V5.33h-3.88v2.31l-.08-.11c-.52-.7-1.22-1.3-2.08-1.76-.86-.46-1.89-.7-3.04-.7ZM48.38,17.72c-.72,0-1.4-.19-2.04-.57-.63-.38-1.15-.93-1.54-1.64-.39-.71-.58-1.54-.58-2.48s.2-1.77.58-2.46c.39-.69.9-1.22,1.52-1.58.62-.36,1.31-.54,2.05-.54s1.43.19,2.08.56c.64.37,1.16.9,1.54,1.59.38.69.57,1.53.57,2.49s-.19,1.8-.57,2.48h0c-.38.69-.9,1.23-1.54,1.59-.64.37-1.34.55-2.08.55ZM48.38,8.54c-.72,0-1.4.18-2.01.53-.61.35-1.11.87-1.49,1.55-.38.68-.57,1.49-.57,2.42s.19,1.75.57,2.44c.38.69.89,1.23,1.51,1.6.62.37,1.29.56,1.99.56s1.41-.18,2.03-.54c.63-.36,1.13-.89,1.51-1.56.37-.68.56-1.5.56-2.44s-.19-1.77-.56-2.44c-.37-.68-.88-1.2-1.51-1.56-.63-.36-1.31-.54-2.03-.54Z"/>
      </g>
      <g>
        <path class="cls-3" d="M64.3,7.71v-2.42h-3.94v15.61h3.94v-7.77c0-1.45.31-2.46.94-3.04.63-.58,1.56-.87,2.8-.87h1.04v-4.14c-1.05,0-1.99.23-2.8.7-.82.47-1.48,1.12-1.99,1.94Z"/>
        <path class="cls-2" d="M64.34,20.93h-4.03V5.24h4.03v2.32c.5-.77,1.14-1.38,1.92-1.83.82-.47,1.77-.71,2.82-.71h.04v4.23h-1.09c-1.22,0-2.15.29-2.77.86-.62.57-.93,1.58-.93,3.01v7.82ZM60.39,20.84h3.86v-7.73c0-1.45.32-2.49.96-3.07.63-.59,1.59-.89,2.83-.89h1v-4.05c-1.02,0-1.94.24-2.74.7-.81.46-1.47,1.11-1.97,1.93l-.08.13v-2.53h-3.86v15.52Z"/>
      </g>
      <g>
        <rect class="cls-3" x="71.73" y=".04" width="3.94" height="20.84"/>
        <path class="cls-2" d="M75.72,20.93h-4.03V0h4.03v20.93ZM71.78,20.84h3.86V.09h-3.86v20.76Z"/>
      </g>
      <g>
        <path class="cls-3" d="M90.36,5.99c-1.17-.64-2.5-.96-3.99-.96s-2.9.33-4.08.99c-1.18.66-2.1,1.6-2.76,2.82-.66,1.22-.99,2.64-.99,4.25s.33,3,1,4.23c.67,1.22,1.6,2.16,2.79,2.83,1.19.67,2.54,1,4.04,1,1.86,0,3.43-.48,4.7-1.45,1.28-.97,2.14-2.2,2.59-3.7h-4.25c-.62,1.26-1.66,1.89-3.13,1.89-1.01,0-1.87-.32-2.56-.96-.7-.64-1.09-1.52-1.18-2.65h11.41c.08-.45.11-.96.11-1.52,0-1.52-.32-2.87-.97-4.04-.65-1.17-1.56-2.08-2.73-2.72ZM82.58,11.62c.15-1.05.56-1.87,1.23-2.46s1.49-.89,2.47-.89c1.03,0,1.91.3,2.62.92.71.61,1.08,1.42,1.1,2.44h-7.41Z"/>
        <path class="cls-2" d="M86.38,21.19c-1.5,0-2.87-.34-4.06-1.01-1.19-.67-2.14-1.63-2.81-2.85-.67-1.22-1-2.65-1-4.25s.33-3.05.99-4.27c.66-1.22,1.59-2.18,2.78-2.83,1.18-.66,2.56-.99,4.1-.99s2.83.32,4.01.96h0c1.18.64,2.1,1.56,2.75,2.74.65,1.18.98,2.54.98,4.06,0,.56-.04,1.08-.11,1.53v.04h-11.4c.1,1.09.49,1.95,1.16,2.57.68.63,1.53.95,2.53.95,1.44,0,2.48-.63,3.09-1.86v-.02h4.35l-.02.06c-.45,1.5-1.33,2.76-2.61,3.73-1.28.97-2.87,1.46-4.73,1.46ZM86.38,5.07c-1.53,0-2.89.33-4.06.98-1.17.65-2.09,1.59-2.74,2.8-.65,1.21-.98,2.63-.98,4.23s.33,3,.99,4.2c.66,1.21,1.59,2.15,2.77,2.81,1.18.66,2.53.99,4.02.99,1.84,0,3.41-.48,4.68-1.44,1.25-.95,2.11-2.17,2.56-3.63h-4.17c-.63,1.25-1.69,1.89-3.15,1.89-1.02,0-1.89-.33-2.59-.97-.7-.64-1.1-1.54-1.2-2.68v-.05s11.41,0,11.41,0c.07-.44.11-.93.11-1.48,0-1.51-.33-2.86-.97-4.02-.64-1.16-1.55-2.07-2.72-2.7-1.16-.63-2.5-.95-3.96-.95ZM90.03,11.66h-7.5v-.05c.16-1.06.58-1.89,1.25-2.49.67-.6,1.51-.9,2.49-.9,1.04,0,1.93.31,2.65.93.72.62,1.09,1.45,1.11,2.47v.04ZM82.63,11.58h7.31c-.03-.98-.39-1.77-1.08-2.36-.7-.6-1.57-.9-2.59-.9-.96,0-1.78.29-2.44.88-.65.57-1.05,1.38-1.2,2.39Z"/>
      </g>
      <g>
        <path class="cls-3" d="M108.22,13.94c-.54-.63-1.17-1.09-1.9-1.39-.73-.3-1.66-.59-2.79-.87-1.11-.28-1.93-.56-2.45-.83-.53-.27-.79-.67-.79-1.2,0-.47.19-.84.58-1.1.38-.26.93-.39,1.65-.39.77,0,1.38.18,1.84.55.46.37.72.86.77,1.48h3.77c-.11-1.58-.72-2.83-1.83-3.76-1.11-.93-2.59-1.39-4.45-1.39-1.26,0-2.35.21-3.28.62-.93.41-1.64.98-2.14,1.69-.5.71-.75,1.5-.75,2.37,0,1.05.27,1.89.8,2.51.54.62,1.17,1.08,1.92,1.38.74.3,1.69.59,2.86.87,1.13.3,1.95.58,2.47.83s.77.63.77,1.14c0,.47-.21.85-.63,1.16-.42.3-1.01.45-1.76.45s-1.41-.2-1.93-.59c-.52-.39-.81-.89-.89-1.49h-3.97c.06.96.38,1.83.97,2.62.59.79,1.39,1.41,2.41,1.87,1.01.46,2.16.69,3.44.69s2.32-.2,3.25-.61c.93-.4,1.64-.96,2.14-1.68.5-.71.75-1.52.75-2.42-.02-1.03-.3-1.86-.83-2.49Z"/>
        <path class="cls-2" d="M102.91,21.19c-1.28,0-2.44-.23-3.45-.69-1.01-.46-1.83-1.1-2.42-1.89-.59-.79-.92-1.68-.98-2.64v-.05s4.05,0,4.05,0v.04c.08.59.37,1.08.88,1.46.51.39,1.15.58,1.9.58s1.32-.15,1.73-.44c.41-.29.62-.67.62-1.12,0-.49-.25-.86-.75-1.1-.51-.25-1.34-.53-2.46-.83-1.16-.28-2.12-.58-2.86-.88-.74-.3-1.39-.77-1.93-1.39-.54-.62-.81-1.48-.81-2.54,0-.87.25-1.67.75-2.39.5-.72,1.23-1.29,2.16-1.7.93-.41,2.04-.62,3.3-.62,1.86,0,3.37.47,4.48,1.41,1.11.93,1.73,2.21,1.85,3.79v.05s-3.86,0-3.86,0v-.04c-.06-.61-.31-1.09-.76-1.45-.45-.36-1.06-.54-1.82-.54-.7,0-1.25.13-1.62.39-.37.25-.56.61-.56,1.06,0,.51.25.89.77,1.16.52.27,1.34.55,2.44.83,1.12.28,2.06.58,2.79.88.74.3,1.38.78,1.92,1.41h0c.54.63.82,1.48.84,2.52,0,.91-.25,1.73-.75,2.45-.5.72-1.23,1.29-2.16,1.69-.93.4-2.03.61-3.27.61ZM96.14,16c.06.93.39,1.78.96,2.55.59.78,1.39,1.41,2.39,1.86,1,.46,2.15.69,3.42.69s2.32-.2,3.24-.6c.92-.4,1.63-.96,2.12-1.66.49-.7.74-1.51.74-2.4-.02-1.02-.3-1.85-.82-2.46-.53-.62-1.16-1.08-1.88-1.38-.73-.3-1.66-.59-2.78-.87-1.11-.28-1.93-.56-2.46-.83-.54-.28-.81-.69-.81-1.24,0-.48.2-.86.6-1.14.39-.27.95-.4,1.67-.4.78,0,1.41.19,1.87.56.46.36.72.86.79,1.47h3.69c-.12-1.54-.73-2.78-1.81-3.68-1.09-.92-2.58-1.38-4.42-1.38-1.25,0-2.34.21-3.26.62-.92.41-1.63.97-2.12,1.67-.49.7-.74,1.49-.74,2.34,0,1.04.27,1.87.79,2.48.53.61,1.17,1.07,1.9,1.37.74.3,1.7.59,2.85.87,1.13.3,1.96.58,2.47.83.53.26.8.66.8,1.18,0,.48-.22.88-.65,1.19-.43.3-1.03.46-1.78.46s-1.43-.2-1.96-.6c-.51-.39-.81-.89-.9-1.48h-3.89Z"/>
      </g>
    </g>
  </g>
</svg>