<?xml version="1.0" encoding="UTF-8"?>
<svg id="Layer_2" data-name="Layer 2" xmlns="http://www.w3.org/2000/svg" viewBox="0 0 93.22 18.04">
  <defs>
    <style>
      .cls-1 {
        fill: #fff;
        stroke-width: 0px;
      }
    </style>
  </defs>
  <g id="Layer_1-2" data-name="Layer 1">
    <g>
      <path class="cls-1" d="M1.12,4.95c.75-1.31,1.77-2.33,3.06-3.06,1.29-.73,2.74-1.1,4.35-1.1,1.88,0,3.52.48,4.94,1.44,1.41.96,2.4,2.3,2.96,4h-3.88c-.39-.8-.93-1.41-1.63-1.81-.7-.4-1.51-.6-2.42-.6-.98,0-1.85.23-2.61.69-.76.46-1.36,1.1-1.78,1.94-.43.84-.64,1.82-.64,2.94s.21,2.08.64,2.93c.43.84,1.02,1.49,1.78,1.95.76.46,1.63.69,2.61.69.92,0,1.72-.2,2.42-.61.7-.41,1.24-1.02,1.63-1.82h3.88c-.56,1.72-1.55,3.05-2.95,4.01-1.41.96-3.06,1.43-4.95,1.43-1.61,0-3.06-.37-4.35-1.1-1.29-.73-2.31-1.75-3.06-3.05-.75-1.3-1.12-2.78-1.12-4.43s.37-3.14,1.12-4.44Z"/>
      <path class="cls-1" d="M29.53,4.95c.79.44,1.4,1.09,1.84,1.95.44.86.66,1.89.66,3.1v7.83h-3.37v-7.37c0-1.06-.26-1.87-.79-2.44s-1.25-.86-2.17-.86-1.67.29-2.2.86c-.54.57-.81,1.38-.81,2.44v7.37h-3.37V0h3.37v6.14c.43-.58,1.01-1.03,1.73-1.36.72-.33,1.53-.49,2.41-.49,1.01,0,1.91.22,2.7.66Z"/>
      <path class="cls-1" d="M35.18,7.52c.54-1.04,1.27-1.85,2.19-2.41.92-.56,1.95-.84,3.1-.84,1,0,1.87.2,2.61.6.75.4,1.34.91,1.79,1.52v-1.9h3.4v13.34h-3.4v-1.95c-.43.63-1.03,1.14-1.79,1.55-.76.41-1.64.61-2.64.61-1.12,0-2.15-.29-3.07-.87-.92-.58-1.65-1.39-2.19-2.44-.54-1.05-.81-2.26-.81-3.62s.27-2.55.81-3.59ZM44.39,9.04c-.32-.59-.76-1.04-1.3-1.35s-1.13-.47-1.76-.47-1.2.15-1.73.46c-.53.31-.96.75-1.29,1.34s-.49,1.28-.49,2.08.16,1.5.49,2.11.76,1.06,1.3,1.38c.54.32,1.11.48,1.72.48s1.21-.16,1.76-.47.98-.76,1.3-1.35c.32-.59.48-1.29.48-2.11s-.16-1.52-.48-2.11Z"/>
      <path class="cls-1" d="M56.64,4.89c.7-.4,1.5-.6,2.4-.6v3.54h-.89c-1.06,0-1.86.25-2.4.75-.54.5-.81,1.37-.81,2.6v6.65h-3.37V4.48h3.37v2.07c.43-.71,1-1.26,1.7-1.66Z"/>
      <path class="cls-1" d="M64.67,0v17.82h-3.37V0h3.37Z"/>
      <path class="cls-1" d="M80.31,12.16h-9.76c.08.96.42,1.72,1.01,2.26.59.55,1.32.82,2.19.82,1.25,0,2.14-.54,2.67-1.61h3.64c-.38,1.28-1.12,2.34-2.22,3.17-1.09.83-2.43,1.24-4.02,1.24-1.28,0-2.44-.29-3.46-.86-1.02-.57-1.81-1.38-2.38-2.42s-.85-2.25-.85-3.61.28-2.59.84-3.64,1.35-1.85,2.36-2.41c1.01-.56,2.18-.84,3.49-.84s2.41.27,3.41.82c1,.55,1.78,1.32,2.34,2.32.55,1,.83,2.16.83,3.46,0,.48-.03.92-.1,1.3ZM76.91,9.9c-.02-.87-.33-1.56-.94-2.08-.61-.52-1.36-.78-2.24-.78-.84,0-1.54.25-2.11.76s-.92,1.21-1.05,2.11h6.34Z"/>
      <path class="cls-1" d="M85.03,17.45c-.87-.39-1.55-.93-2.06-1.6s-.78-1.42-.83-2.24h3.4c.06.51.32.94.76,1.28.44.34.99.51,1.65.51s1.14-.13,1.5-.38c.36-.26.54-.59.54-.99,0-.43-.22-.76-.66-.98s-1.14-.45-2.11-.71c-1-.24-1.81-.49-2.44-.75-.63-.26-1.18-.65-1.64-1.18s-.69-1.24-.69-2.14c0-.74.21-1.41.64-2.02.43-.61,1.04-1.09,1.83-1.44.8-.35,1.73-.53,2.81-.53,1.59,0,2.86.4,3.81,1.19.95.79,1.47,1.87,1.57,3.22h-3.23c-.05-.53-.27-.95-.66-1.26-.39-.31-.92-.47-1.58-.47-.61,0-1.08.11-1.41.34-.33.23-.49.54-.49.94,0,.45.23.79.67,1.02.45.23,1.15.47,2.1.71.96.24,1.76.49,2.38.75.63.26,1.17.65,1.63,1.19s.69,1.25.71,2.13c0,.77-.21,1.46-.64,2.07-.43.61-1.04,1.09-1.83,1.43s-1.72.52-2.78.52-2.07-.2-2.94-.59Z"/>
    </g>
  </g>
</svg>