<?xml version="1.0" encoding="UTF-8"?>
<svg id="Layer_2" data-name="Layer 2" xmlns="http://www.w3.org/2000/svg" viewBox="0 0 75.23 71.4">
  <defs>
    <style>
      .cls-1 {
        fill: #fff;
      }
    </style>
  </defs>
  <g id="Layer_1-2" data-name="Layer 1">
    <path class="cls-1" d="M62.84,17.66c-.96.88-2.45.8-3.32-.15-.88-.96-.81-2.45.15-3.32L75.23,0l-17.6,8.2c-5.9-4.47-13.25-7.13-21.22-7.13C16.99,1.08,1.25,16.82,1.25,36.24c0,7.44,2.31,14.34,6.26,20.02l-7.51,11.96,12.37-11.27c.96-.88,2.45-.81,3.32.15.88.96.81,2.45-.15,3.32l-10.5,9.56,10.89-5.16c5.77,4.14,12.84,6.58,20.48,6.58,19.42,0,35.16-15.74,35.16-35.16,0-6.38-1.7-12.37-4.68-17.53l5.53-9.79-9.59,8.75ZM34.86,19.89l-7.09,4.09-6.31,3.64v17.24l13.32,7.69.08.05v9.33l-.54-.31-5.25-3.03-.74-.43-6.87-3.96-5.99-3.46-2.09-1.2v-17.24s0-9.33,0-9.33l8.08-4.67,6.89-3.98,6.01-3.47.5-.29v9.33ZM59.44,29.3l-1.6,2.06-.63.8-3.19,4.09,1.71,2.23,1.35,1.76.71.93,1.65,2.15v6.23l-2.09,1.2-6,3.46-6.87,3.96-5.99,3.46-.57.33v-9.33l.12-.07,13.31-7.69-3.59-4.59h-9.72v-.05h-.12v-8.08h9.78s3.65-4.54,3.65-4.54h0s-13.32-7.69-13.32-7.69l-.12-.07v-9.33l.57.33,6.01,3.47,6.85,3.96,8.08,4.67v6.35Z"/>
  </g>
</svg>