<?xml version="1.0" encoding="UTF-8"?>
<svg id="Layer_2" data-name="Layer 2" xmlns="http://www.w3.org/2000/svg" viewBox="0 0 32.69 37.12">
  <defs>
    <style>
      .cls-1 {
        fill: #fff;
        stroke-width: 0px;
      }
    </style>
  </defs>
  <g id="Layer_1-2" data-name="Layer 1">
    <path class="cls-1" d="M31.2,19.29c-.41,0-.78.17-1.05.44l-12.32,12.32V1.49c0-.82-.67-1.49-1.49-1.49s-1.49.66-1.49,1.49v30.56L2.54,19.73c-.27-.27-.64-.44-1.05-.44-.82,0-1.49.66-1.49,1.49,0,.41.17.78.44,1.05l14.86,14.86c.27.27.64.44,1.05.44s.78-.17,1.05-.44l14.86-14.86c.27-.27.44-.64.44-1.05,0-.82-.67-1.49-1.49-1.49"/>
  </g>
</svg>