<?xml version="1.0" encoding="UTF-8"?>
<svg id="Layer_2" data-name="Layer 2" xmlns="http://www.w3.org/2000/svg" viewBox="0 0 46.17 46.13">
  <defs>
    <style>
      .cls-1 {
        fill: #fff;
        stroke-width: 0px;
      }
    </style>
  </defs>
  <g id="Layer_1-2" data-name="Layer 1">
    <g>
      <path class="cls-1" d="M24.54,46.13h-2.88l-3.41-.51C8.86,43.63,1.46,35.68.21,26.15c-.07-.54-.05-1.14-.19-1.66.04-.95-.06-1.93,0-2.89C1.23.96,27.45-7.74,40.85,8.31c12.07,14.46,2.32,36.73-16.31,37.82ZM21.36,2.7C5.88,3.78-2.54,21.87,6.31,34.66c9.19,13.28,29.59,11.08,35.67-3.86S36.57,1.63,21.36,2.7Z"/>
      <path class="cls-1" d="M34.52,10.17c1.02-.08,1.76,1.02,1.3,1.94l-8.17,15.18-.53.47-14.9,8c-1.22.62-2.44-.61-1.82-1.82,2.82-4.72,5.05-10.06,7.91-14.73.36-.59.55-.69,1.13-1.04,3.69-2.21,7.95-4.32,11.78-6.34.63-.33,2.8-1.61,3.32-1.65ZM31.29,14.84l-9.46,5.09,4.37,4.37,5.09-9.47ZM14.89,31.25l9.46-5.09-4.37-4.37-5.09,9.47Z"/>
    </g>
  </g>
</svg>