<?xml version="1.0" encoding="UTF-8"?>
<svg id="Layer_2" data-name="Layer 2" xmlns="http://www.w3.org/2000/svg" viewBox="0 0 41.04 37.32">
  <defs>
    <style>
      .cls-1 {
        fill: #fff;
        stroke-width: 0px;
      }
    </style>
  </defs>
  <g id="Layer_1-2" data-name="Layer 1">
    <g>
      <path class="cls-1" d="M0,1.17C.43-.2,2.36-.47,2.96.9c.03.08.17.44.17.47v32.82h36.59c.31,0,.92.49,1.07.77.59,1.15-.21,2.34-1.47,2.35H1.64c-.83-.07-1.33-.44-1.64-1.21V1.17Z"/>
      <path class="cls-1" d="M37.91,9.51l-10.47,10.33c-.55.35-1.18.35-1.74,0l-3.62-3.59-12.75,12.74c-1.54,1.27-3.51-.55-2.24-2.16l14.07-14.06c.74-.48,1.39-.34,2.04.19,1.16.95,2.21,2.38,3.36,3.37l9.18-9.14h-8.3c-.08,0-.42-.22-.51-.29-1.24-.9-.63-2.73.86-2.82,3.74.18,7.83-.31,11.52-.03.91.07,1.64.51,1.72,1.48l-.02,12.01c-.22,1.39-2.09,1.79-2.85.57-.06-.1-.25-.55-.25-.63v-7.98Z"/>
    </g>
  </g>
</svg>