<?xml version="1.0" encoding="UTF-8"?>
<svg id="Layer_2" data-name="Layer 2" xmlns="http://www.w3.org/2000/svg" viewBox="0 0 37.44 37.93">
  <defs>
    <style>
      .cls-1 {
        fill: #fff;
        stroke-width: 0px;
      }
    </style>
  </defs>
  <g id="Layer_1-2" data-name="Layer 1">
    <g>
      <path class="cls-1" d="M32.5,10.13c.79-.1,2.82-.11,3.52.19s1.36,1.2,1.42,2v23.43c-.09,1.06-.97,2.02-2.04,2.13-.67.07-2.84.08-3.42-.08-.71-.2-1.51-1.06-1.61-1.8V12.14c.2-1.13,1-1.88,2.14-2.02Z"/>
      <path class="cls-1" d="M12.24,18.46c.69-.09,2.81-.1,3.44.1.82.27,1.38,1.03,1.58,1.84v15.42c-.06.91-.97,1.91-1.88,2.04-.66.09-3.12.08-3.7-.12-.76-.26-1.35-1.07-1.5-1.84v-15.41c.17-1.06.99-1.89,2.06-2.03Z"/>
      <path class="cls-1" d="M22.07,22.63c.57-.1,3.06-.09,3.59.04.76.18,1.54,1.07,1.66,1.84v11.4c-.16.92-.92,1.81-1.88,1.95-.63.09-3,.1-3.57-.06-.75-.21-1.49-1.05-1.6-1.82v-11.39c.08-.85.95-1.81,1.79-1.95Z"/>
      <path class="cls-1" d="M33.58.03c1.15-.24,1.97.95,1.22,1.89l-9.08,9.1c-1.75,1.46-3.1.91-4.94.1-2.06-.91-4.05-1.99-6.11-2.89-.45-.1-.91-.07-1.26.25l-9.05,9.05c-1.11.84-2.51-.46-1.71-1.63L11.88,6.68c.75-.66,1.75-.98,2.74-.9,2.88.91,5.53,2.5,8.31,3.7.55.14.98.02,1.38-.38L33.1.3c.13-.11.31-.24.48-.27Z"/>
      <path class="cls-1" d="M.78,29.73c.89-.87,2.83-.79,4.02-.7s2.24.83,2.37,2.05c.12,1.07.12,3.78,0,4.84-.1.91-1.05,1.86-1.96,1.96-.71.08-2.36.07-3.08,0-1.08-.11-1.94-1.07-2.04-2.13s-.11-3.4,0-4.51c.05-.52.33-1.15.7-1.51Z"/>
    </g>
  </g>
</svg>