<?xml version="1.0" encoding="UTF-8"?>
<svg id="Layer_2" data-name="Layer 2" xmlns="http://www.w3.org/2000/svg" viewBox="0 0 36.94 36.95">
  <defs>
    <style>
      .cls-1 {
        fill: #fff;
        stroke-width: 0px;
      }
    </style>
  </defs>
  <g id="Layer_1-2" data-name="Layer 1">
    <g>
      <path class="cls-1" d="M17.26,5.26c10.61-.82,17.98,10.25,12.8,19.64-5.24,9.52-19.3,8.88-23.7-1.05-3.63-8.21,1.91-17.89,10.89-18.59ZM23.21,11.18c-.54-1.87-2.23-4.83-4.39-5.04-2.64-.25-4.37,2.86-5.08,5,3.11.67,6.35.6,9.47.04ZM15.47,6.52c-2.2.48-4.19,1.71-5.78,3.27.99.55,2.07.86,3.15,1.17.54-1.65,1.4-3.21,2.63-4.43ZM24.12,10.95c.37-.03,3.15-1,3.15-1.16-1.58-1.57-3.59-2.78-5.78-3.27,1.24,1.22,2.09,2.79,2.63,4.43ZM6.15,18.02h5.49c.02-2.11.33-4.21.9-6.24-1.23-.24-2.36-.76-3.5-1.25-1.77,2.07-2.83,4.76-2.89,7.49ZM30.8,18.02c-.06-2.74-1.12-5.43-2.89-7.5-1.12.52-2.27,1.02-3.5,1.26.56,2.03.89,4.13.9,6.24h5.49ZM24.41,18.02c-.04-2.02-.28-4.06-.9-5.98-3.31.62-6.73.68-10.03-.02-.14.04-.32.94-.37,1.13-.38,1.58-.55,3.25-.58,4.87h11.87ZM11.64,18.92h-5.49c.06,2.74,1.12,5.43,2.89,7.5,1.13-.51,2.27-1.03,3.5-1.26-.57-2.03-.89-4.13-.9-6.24ZM24.41,18.92h-11.87c.04,2.02.28,4.06.9,5.98,3.31-.62,6.73-.68,10.03.02.14-.04.32-.94.37-1.13.38-1.58.55-3.24.58-4.87ZM30.8,18.92h-5.49c0,2.11-.35,4.21-.9,6.24,1.23.22,2.36.77,3.5,1.25,1.77-2.07,2.83-4.76,2.89-7.49ZM23.21,25.76c-3.12-.56-6.36-.64-9.47.04.71,2.13,2.39,5.17,5,5,2.2-.15,3.92-3.14,4.47-5.04ZM12.84,25.98c-1.09.28-2.17.62-3.15,1.17,1.59,1.57,3.59,2.78,5.78,3.27-1.23-1.22-2.09-2.79-2.63-4.43ZM21.48,30.41c2.2-.48,4.19-1.71,5.78-3.27-.99-.53-2.06-.9-3.15-1.16-.54,1.65-1.4,3.21-2.63,4.43Z"/>
      <path class="cls-1" d="M20.22,35.53c-.58,2.2-3.73,1.72-3.47-.65.19-1.75,2.85-1.98,3.39-.28,5.82-.47,10.84-4.29,13.23-9.56.17-.37.45-1.4.63-1.63.22-.29.73-.24.79.11.09.55-.92,2.61-1.24,3.19-2.67,4.89-7.76,8.3-13.33,8.8ZM18.31,34.34c-1.01.2-.85,1.82.27,1.71s.89-1.94-.27-1.71Z"/>
      <path class="cls-1" d="M16.81,2.32c-5.8.47-10.87,4.29-13.23,9.56-.14.32-.51,1.52-.66,1.67s-.55.17-.69,0c-.27-.34.41-1.79.59-2.2C5.3,5.87,10.73,1.93,16.74,1.4c.35-1.91,3.26-1.84,3.47.05.24,2.2-2.59,2.86-3.39.88ZM18.31.9c-1.03.17-.82,1.84.27,1.71s.94-1.91-.27-1.71Z"/>
      <path class="cls-1" d="M2.34,20.13c.46,5.8,4.3,10.87,9.56,13.23.32.14,1.52.51,1.67.66s.17.55,0,.69c-.34.27-1.79-.41-2.2-.59-5.48-2.46-9.42-7.89-9.95-13.9-2.25-.61-1.67-3.79.72-3.46,1.68.24,1.88,2.87.21,3.39ZM1.47,17.66c-.73.17-.77,1.38-.06,1.6,1.51.47,1.62-1.96.06-1.6Z"/>
      <path class="cls-1" d="M35.55,16.73c1.92.38,1.84,3.3-.12,3.47-2.16.18-2.75-2.6-.8-3.4-.47-5.81-4.29-10.86-9.56-13.23-.34-.15-1.62-.53-1.72-.76-.19-.39.07-.7.5-.66.4.04,1.39.5,1.8.68,5.45,2.47,9.37,7.89,9.9,13.88ZM34.91,17.66c-.78.18-.78,1.59.21,1.64,1.36.07,1.2-1.96-.21-1.64Z"/>
    </g>
  </g>
</svg>