<?xml version="1.0" encoding="UTF-8"?>
<svg id="Layer_2" data-name="Layer 2" xmlns="http://www.w3.org/2000/svg" viewBox="0 0 38.47 38.48">
  <defs>
    <style>
      .cls-1 {
        fill: #fff;
        stroke-width: 0px;
      }
    </style>
  </defs>
  <g id="Layer_1-2" data-name="Layer 1">
    <path class="cls-1" d="M19.54,0l17.63,9.46c.59.35,1.11.56,1.3,1.29v.53c-.13.16-.15.35-.27.52-.51.73-4.51,2.47-5.57,3.15-.06.04-.29.19-.25.24l5.28,2.8c.42.2.6.57.8.96v.6c-.19.42-.37.75-.8.96l-5.28,2.8c-.04.05.19.2.25.24,1.06.67,5.06,2.42,5.57,3.15.12.17.14.36.27.52v.6c-.24.68-.73.88-1.3,1.22-5.7,3.31-11.72,6.12-17.46,9.36-.28.12-.6.13-.89.02-5.73-3.24-11.85-6.06-17.52-9.38-.4-.23-.87-.43-1.11-.85-.38-.66-.18-1.32.37-1.8l5.52-3.04L.41,20.22c-.58-.64-.55-1.51.12-2.06l5.55-2.98c.04-.05-.19-.2-.25-.24-1.63-1.04-3.63-1.79-5.27-2.84-.7-.57-.78-1.57-.06-2.17L18.94,0h.6ZM34.19,11.05L19.21,2.95,4.28,11.05l14.99,7.97,14.92-7.97ZM34.12,19.16l-4.68-2.46-9.69,5.18c-.35.12-.6.13-.96.02l-9.74-5.2c-1.44.75-2.9,1.48-4.31,2.27-.09.05-.41.18-.37.3l14.9,7.99,14.81-7.94.05-.16ZM34.19,27.43c-1.65-.72-3.17-1.8-4.83-2.47l-9.74,5.22h-.76s-9.74-5.22-9.74-5.22l-4.83,2.47,14.98,8.1,14.93-8.1Z"/>
  </g>
</svg>