<?xml version="1.0" encoding="UTF-8"?>
<svg id="Layer_2" data-name="Layer 2" xmlns="http://www.w3.org/2000/svg" viewBox="0 0 38.48 38.49">
  <defs>
    <style>
      .cls-1 {
        fill: #fff;
        stroke-width: 0px;
      }
    </style>
  </defs>
  <g id="Layer_1-2" data-name="Layer 1">
    <g>
      <path class="cls-1" d="M18.27,38.49c-1.09-.37-1.58-1.27-1.43-2.4-.8.04-1.66-.69-1.78-1.48-.03-.18,0-.87-.03-.91-.05-.05-.44-.01-.56-.38-.24-.75.56-.82.57-.88v-1.15c-.47-.03-.72-.4-.57-.84.05-.16.25-.25.27-.41.02-.22-.21-.55-.23-.79-1.87.99-5.21,2.92-7.32,1.94-2.48-1.15-.91-5.05-.01-6.83.17-.33.58-1.15.79-1.39.44-.5,1.15-.1,1.05.52-.04.29-.8,1.46-.99,1.87-.55,1.18-2.01,4.66.2,4.86,1.78.16,4.04-1.1,5.52-1.99-2.06-2.35-3.96-4.68-4.13-7.96-.07-1.28.21-2.43.44-3.67-1.92-2.59-5.47-7.18-5.25-10.54.27-4.22,5.67-1.88,7.79-.72.97.53,3.27,1.88,4,2.61.5.51.15,1.19-.54,1.07-2.18-1.45-4.59-3.29-7.16-3.96-3.42-.89-3.27,1.17-2.32,3.67.89,2.36,2.53,4.63,4.06,6.61,3.28-6.81,13.93-6.82,17.21,0,1.53-1.99,3.15-4.25,4.06-6.61.99-2.57,1.05-4.58-2.38-3.66-2.55.68-4.93,2.52-7.1,3.95-.65.15-1.04-.56-.58-1.04s2.04-1.44,2.67-1.83c2.09-1.29,8.79-4.87,9.16-.16.27,3.36-3.32,8.02-5.25,10.61.24,1.26.52,2.44.44,3.74-.19,3.22-2.1,5.58-4.13,7.89,0,.1,1.55.9,1.78,1,1.01.47,3.68,1.57,4.59.66s-.17-3.53-.64-4.53c-.19-.41-.94-1.58-.99-1.87-.1-.64.62-1.04,1.08-.48.37.45,1.04,1.89,1.28,2.48,1.93,4.63.27,7.25-4.77,5.29-1.04-.41-2.02-1-3.01-1.51-.12.06-.32.62-.3.75.02.23.4.3.29.81-.09.41-.57.41-.59.48v1.11c.02.06.81.13.57.88-.12.37-.51.33-.56.38-.03.04,0,.73-.03.91-.12.79-.98,1.52-1.78,1.48.15,1.13-.34,2.03-1.43,2.4h-1.95ZM18.48,11.46c-3.03.24-5.91,2.07-6.97,4.98,2.3,2.88,4.9,5.53,7.76,7.84,2.78-2.33,5.32-4.92,7.64-7.69.19-.31-.37-1.15-.57-1.46-1.7-2.66-4.75-3.91-7.86-3.67ZM14.54,21.63c-1.14-1.15-2.22-2.36-3.3-3.57-.06-.06-.11-.14-.11-.23-.11-.02-.11.13-.13.21-.31,1.29-.2,2.87.18,4.13.64,2.13,2.22,3.69,3.55,5.4l.1.03,3.43-2.51c-1.25-1.14-2.53-2.25-3.73-3.45ZM27.36,17.83c0,.09-.05.16-.11.23-2.2,2.48-4.52,4.85-7.03,7.02l3.43,2.51.1-.03c.88-1.19,1.97-2.24,2.72-3.52.98-1.68,1.4-3.62,1.11-5.56-.03-.17-.06-.56-.22-.65ZM22.55,30.07c-.04-.51.22-.97.44-1.4l-3.72-2.8-3.78,2.74c.19.47.5.93.45,1.46h6.61ZM22.25,31.28h-6.01v1.2h6.01v-1.2ZM22.25,33.68h-6.01c0,.46-.12,1.02.43,1.19,1.59-.08,3.38.16,4.95.02.76-.07.64-.59.64-1.21ZM20.45,36.08h-2.4c.02.37-.12.9.27,1.12.23.13,1.57.13,1.81.03.43-.19.31-.77.32-1.15Z"/>
      <path class="cls-1" d="M4.44,38.49h-.45c-.43-.3-.47-.9-.69-1.38-.42-.94-1.07-1.79-1.92-2.36-.34-.23-1.25-.53-1.34-.84-.25-.78.77-.92,1.3-1.26.86-.57,1.55-1.45,1.96-2.39.25-.55.33-1.7,1.19-1.32.3.13.47.97.63,1.32.42.93,1.11,1.83,1.96,2.39.53.35,1.55.48,1.3,1.26-.1.31-.96.58-1.3.81-.89.59-1.58,1.53-2.01,2.5-.2.44-.19,1-.64,1.28ZM4.29,31.13c-.18-.04-.12.02-.17.1-.09.14-.15.34-.25.5-.5.77-1.1,1.47-1.91,1.92l.68.52c.2.22.45.41.64.64.39.45.62,1.01,1.01,1.43.17-.56.58-1,.9-1.46l1.28-1.13c-.96-.57-1.78-1.46-2.18-2.52Z"/>
      <path class="cls-1" d="M34.05,38.49c-.44-.28-.44-.82-.64-1.27-.41-.94-1.07-1.85-1.92-2.44-.54-.37-1.64-.54-1.39-1.33.1-.31.96-.58,1.3-.81.68-.44,1.32-1.19,1.71-1.89.22-.41.53-1.49.71-1.69.24-.27.63-.24.88,0,.29.62.46,1.26.81,1.85.38.64.98,1.3,1.59,1.71.48.32,1.03.42,1.38.84v.45c-.36.43-.93.53-1.42.87-.81.57-1.48,1.43-1.88,2.33-.22.49-.24,1.08-.69,1.38h-.45ZM34.35,31.13l-.15.05c-.45.99-1.2,1.93-2.17,2.43l.05.16c.94.52,1.74,1.48,2.13,2.47.08.06.61-.89.69-1,.42-.58.99-1.17,1.64-1.48l-.05-.16c-.94-.54-1.74-1.46-2.13-2.47Z"/>
      <path class="cls-1" d="M38.48,15.72v.45c-.18.35-.52.34-.8.51-.47.29-.87.62-1.17,1.09-.23.37-.45,1.33-.81,1.45-.81.26-.89-.75-1.19-1.29s-.66-.88-1.19-1.21c-.37-.23-.88-.2-.85-.8.02-.53.47-.5.81-.7.55-.34.92-.67,1.24-1.24.19-.34.39-1.15.68-1.27.83-.36.9.63,1.16,1.14.32.62.75,1.01,1.33,1.38.28.18.62.16.8.51ZM35.55,14.74l-.16.05c-.22.42-.63.87-1.05,1.08v.15c.41.22.87.68,1.05,1.13l.16-.05.97-1.13c.03-.18-.99-.89-.97-1.23Z"/>
      <path class="cls-1" d="M38.48,2.8v.45c-.16.33-.46.31-.7.46-.43.27-.78.55-1.04.99-.22.36-.37,1.18-.73,1.3-.79.25-.83-.59-1.09-1.09-.29-.55-.63-.86-1.14-1.19-.32-.21-.73-.14-.71-.73.02-.52.41-.47.71-.65.41-.27.78-.56,1.04-.99.21-.34.37-1.14.68-1.27.85-.37.93.75,1.24,1.27.25.41.55.67.95.93.26.17.62.18.79.52ZM35.74,2.12l-.78.93.86.87.78-.93-.86-.87Z"/>
      <path class="cls-1" d="M2.84,12.65c.77-.17.75.6.98,1.09.3.63.76,1.08,1.34,1.44.35.22.83.19.85.73.03.6-.48.57-.85.8-.56.35-.97.75-1.28,1.35-.27.52-.3,1.41-1.1,1.16-.35-.11-.53-.94-.73-1.29-.29-.5-.7-.91-1.19-1.21-.34-.21-.83-.2-.85-.73-.03-.6.48-.57.85-.8.53-.33.88-.66,1.19-1.21.22-.38.38-1.22.79-1.31ZM3.09,14.74l-.16.05c-.22.42-.63.87-1.05,1.08v.15c.41.22.87.68,1.05,1.13l.16-.05.97-1.13c.03-.18-.99-.89-.97-1.23Z"/>
      <path class="cls-1" d="M2.54.03c.8-.17.81.79,1.13,1.32.23.38.58.69.95.93.32.2.77.19.8.71.02.58-.39.52-.71.73-.43.28-.77.54-1.04.99-.2.34-.38,1.14-.68,1.27-.85.37-.93-.75-1.24-1.27-.27-.45-.61-.71-1.04-.99C.42,3.52.02,3.58,0,3.06c-.02-.59.45-.56.8-.78.37-.23.72-.55.95-.93S2.11.13,2.54.03ZM2.67,2.12l-.78.93.86.87.78-.93-.86-.87Z"/>
      <path class="cls-1" d="M10.21,10.32c.4-.08,1.18.72,1.4,1.04.43.63-.16,1.26-.76.91-.24-.14-1.12-1.01-1.15-1.26-.03-.29.22-.64.51-.69Z"/>
      <path class="cls-1" d="M28.01,10.32c.45-.09.88.37.74.82-.07.22-1.09,1.19-1.32,1.24-.38.09-.81-.35-.72-.72.06-.26,1.06-1.29,1.3-1.34Z"/>
      <path class="cls-1" d="M19.07,6.64c.26-.06.55.01.69.26.12.21.13,1.43.07,1.7-.13.59-1.08.59-1.18-.06-.07-.47-.15-1.77.43-1.9Z"/>
      <path class="cls-1" d="M6.45,19.27c.23-.05,1.39-.05,1.6.02.54.17.5,1.07-.12,1.16-.25.04-1.32.04-1.54-.03-.52-.16-.5-1.03.06-1.15Z"/>
      <path class="cls-1" d="M30.49,19.27c.23-.05,1.39-.05,1.6.02.54.17.5,1.07-.12,1.16-.25.04-1.32.04-1.54-.03-.52-.16-.5-1.03.06-1.15Z"/>
      <path class="cls-1" d="M10.13,26.33c.46-.1.89.38.72.79-.06.15-1.08,1.02-1.24,1.09-.59.26-1.1-.3-.8-.87.08-.15,1.16-.97,1.32-1.01Z"/>
      <path class="cls-1" d="M28.01,26.33c.39-.12,1.61.79,1.72,1.11.17.53-.23.96-.77.77-.26-.09-1.32-.94-1.36-1.2-.03-.22.21-.62.42-.68Z"/>
      <path class="cls-1" d="M18.63,12.66c.35-.03.87-.12,1.1.2s.13.74-.21.92c-1.03.08-2,.22-2.94.67-.49.23-1.22,1.01-1.66.29-.25-.41-.02-.63.31-.88.83-.64,2.36-1.12,3.39-1.19Z"/>
      <path class="cls-1" d="M13.66,15.66c.88-.19,1.03,1.02.34,1.17-.88.19-1.03-1.02-.34-1.17Z"/>
    </g>
  </g>
</svg>