<?xml version="1.0" encoding="UTF-8"?>
<svg id="Layer_2" data-name="Layer 2" xmlns="http://www.w3.org/2000/svg" viewBox="0 0 64.33 58.95">
  <defs>
    <style>
      .cls-1 {
        fill: #fff;
        stroke-width: 0px;
      }
    </style>
  </defs>
  <g id="Layer_1-2" data-name="Layer 1">
    <g>
      <path class="cls-1" d="M8.68,58.95v-12.82c-4.43.15-8.17-3.51-8.68-7.82V7.99C.51,3.97,3.53.77,7.56.19c16.31-.25,32.68-.25,49,0,4.51.78,7.31,4.22,7.57,8.73-.51,9.38.65,19.43,0,28.73-.31,4.41-3.29,7.8-7.68,8.48l-28.96.03-18.32,12.67-.48.12ZM12.56,51.87l13.7-9.48h29.66c2.81-.44,4.29-2.55,4.48-5.28-.49-9.12.63-18.88,0-27.93-.19-2.73-1.67-4.84-4.48-5.28H8.21c-2.37.28-4.14,2.14-4.47,4.48v29.52c.25,1.7,1.27,3.23,2.82,3.99.16.08,1.19.48,1.25.48h4.54l.2.2v9.28Z"/>
      <rect class="cls-1" x="17.1" y="13.4" width="29.79" height="3.74"/>
      <rect class="cls-1" x="17.1" y="21.41" width="29.79" height="3.74"/>
      <rect class="cls-1" x="17.1" y="29.43" width="29.79" height="3.74"/>
    </g>
  </g>
</svg>