<?xml version="1.0" encoding="UTF-8"?>
<svg id="Layer_2" data-name="Layer 2" xmlns="http://www.w3.org/2000/svg" viewBox="0 0 48.96 46.43">
  <defs>
    <style>
      .cls-1 {
        fill: #fff;
        stroke-width: 0px;
      }
    </style>
  </defs>
  <g id="Layer_1-2" data-name="Layer 1">
    <g>
      <path class="cls-1" d="M0,28.19l7.42-12.61c.24-.14.53-.16.78-.03l5.54,3.21c.43.5.2,1.04-.16,1.5h4.64c.73,0,2.17-1.58,3.72-1.42.84.09,1.86,1,2.41,1.04.31.02,1.13-.55,1.52-.67.64-.21,1.01-.18,1.66-.02,1.95.47,3.99,1.52,5.95,1.99.89.21,1.4.07,2.2-.38-.29-.63-1.05-1.3-.47-2l5.57-3.23c.37-.17.8-.08,1.01.28l7.17,12.44c.07.32,0,.64-.27.84l-5.86,3.27c-.82-.09-.86-.99-1.35-1.49l-4.12,2.38c1.24,2.23-.13,4.81-2.72,4.78.13,1.75-1.41,3.29-3.16,3.16.06,2.02-1.63,3.44-3.62,3.17-.39,1.6-1.99,2.51-3.55,1.85-.3-.12-.69-.56-.83-.61-.21-.06-.79.1-1.13.08-1.19-.07-2.03-.97-2.34-2.07-1.96.34-3.7-1.21-3.64-3.2-1.78.18-3.24-1.42-3.16-3.16-1.44.15-2.92-1.04-3.13-2.46-.05-.36.09-1.29-.02-1.41l-3.02-1.77c-.21.47-.61.86-1.15.68-1.69-1.14-3.9-2-5.53-3.18-.15-.11-.23-.24-.35-.37v-.57ZM8.17,17.31L1.84,28.15l3.95,2.35,6.35-10.78-3.96-2.4ZM40.78,17.31l-3.96,2.4,6.35,10.78,3.95-2.35-6.34-10.83ZM22.56,20.64c-.26-.03-.49-.23-.74-.27-.83-.12-2.54,1.31-3.71,1.41-1.73.16-3.65-.15-5.4.05l-4.8,8.2-.06.34,3.08,1.72c.2-.04,2.39-2.45,2.83-2.81,2.09-1.67,5.01-.2,4.97,2.44,1.81.02,3.31,1.4,3.15,3.25,1.02-.13,1.77.37,2.54.96l1.48-.29c-.03-1.77,1.36-3.24,3.15-3.16.06-.8.28-1.58.82-2.2.17-.19,1.01-.72.91-.86-.27-.11-.56-.32-.79-.5-.97-.73-2.5-2.1-3.49-2.63-.52-.28-1.77-.37-2.25-.02-.52.39-1.14,2.05-1.69,2.61-.24.24-.79.48-1.13.51-.4.03-2.09-.21-2.48-.34-.77-.26-1.24-1.07-1.15-1.86.07-.63,1.02-3.81,1.33-4.31.7-1.12,2.25-1.37,3.3-2.05.09-.06.17.01.12-.21ZM36.52,22.17c-.86.24-1.68.73-2.61.66-.32-.02-.76-.17-1.09-.25-2.09-.55-4.13-1.56-6.24-1.99l-5.98,2.92c-.69,1.19-.81,2.67-1.28,3.96.07.3,1.77.34,2.1.4.89-1.15,1.42-3.11,3.11-3.3,1.2-.14,2.15.05,3.14.69,1.92,1.23,4.77,3.38,6.52,4.86.31.26,1.92,2.02,2.09,1.99l4.46-2.62-4.21-7.31ZM15.47,30.13c-.25.04-.45.16-.65.31-.37.27-2.9,2.82-3.08,3.14-.74,1.37.82,2.79,2.12,1.93.32-.21,2.98-2.88,3.15-3.16.65-1.1-.31-2.4-1.54-2.21ZM31.81,30.89c-1.18.19-1.43,1.57-.78,2.45.32.44,2.52,2.65,2.94,2.9,1.49.88,2.94-.73,2.02-2.12-.23-.34-2.68-2.8-3.01-3.01-.35-.23-.76-.29-1.17-.22ZM18.88,33.31c-.35,0-.67.13-.96.33-.45.33-2.66,2.55-2.94,2.99-.89,1.39.67,2.93,2.06,2.06.37-.23,2.81-2.69,3.05-3.07.66-1.03.02-2.31-1.22-2.31ZM28.76,34.05c-1.15.17-1.62,1.41-.97,2.36.21.32,2.78,2.88,3.07,3.05,1.44.85,2.93-.82,1.89-2.27-.37-.52-2.14-2.28-2.67-2.68-.39-.3-.79-.54-1.31-.46ZM20.52,41.64l2.91-3.07c.5-1.43-.82-2.57-2.16-1.87l-3.22,3.28c-.63,1.64,1.15,2.85,2.47,1.66ZM26.45,39.32c.33.35.62,1,.68,1.47.11.92-.55,1.21.49,1.81,1.49.86,3.01-.76,1.98-2.17-.38-.52-2.3-2.42-2.82-2.82s-1.08-.57-1.68-.24l-.05,1.19c.51.16,1.03.37,1.41.76ZM24.55,40.07c-.18.02-.44.16-.6.27-.24.17-2.18,2.11-2.29,2.3-.53.94.5,1.92,1.37,1.37.2-.12,2.33-2.26,2.43-2.44.39-.69-.15-1.57-.93-1.5ZM26.1,43.2l-1.43,1.39c.96.91,2.11-.36,1.43-1.39Z"/>
      <path class="cls-1" d="M23.98.02c7.2-.42,11.89,7.5,8.13,13.67-3.29,5.39-11.08,5.69-14.84.63C13,8.59,16.91.43,23.98.02ZM24.07,1.55c-6.68.38-9.53,8.79-4.38,13.12,4.39,3.7,11.15,1.18,12.12-4.42.8-4.66-3.02-8.96-7.74-8.7Z"/>
      <path class="cls-1" d="M23.43,9.74l4.04-3.27c.87-.36,1.47.5.93,1.22-1.5,1.05-2.87,2.55-4.35,3.58-.33.23-.5.38-.95.29-.48-.09-1.63-2.18-2.08-2.6-.24-.63.13-1.22.83-1.12.53.08,1.28,1.43,1.59,1.91Z"/>
    </g>
  </g>
</svg>