<?xml version="1.0" encoding="UTF-8"?>
<svg id="Layer_2" data-name="Layer 2" xmlns="http://www.w3.org/2000/svg" viewBox="0 0 34.69 38.44">
  <defs>
    <style>
      .cls-1 {
        fill: #fff;
        stroke-width: 0px;
      }
    </style>
  </defs>
  <g id="Layer_1-2" data-name="Layer 1">
    <g>
      <path class="cls-1" d="M16.74,38.42c-1.88-.2-3.69-1.75-4.23-3.55-.35-1.19-.21-2.26.09-3.43l-3.56-2.02c-1.83,2.16-4.99,2.59-7.21.73-3.38-2.82-1.77-8.26,2.52-8.87v-4.16c-1.97-.34-3.71-1.81-4.18-3.78-1.04-4.34,3.53-7.84,7.42-5.61.59.34.99.75,1.46,1.22l3.56-2.02c-.19-.86-.37-1.59-.28-2.5.49-5.3,8.23-6.15,9.84-.99.38,1.2.24,2.29-.07,3.49l3.56,2.02c2.18-2.64,6.31-2.54,8.21.37,2.05,3.14.1,7.21-3.52,7.8v4.16c4.29.6,5.9,6.06,2.52,8.87-2.23,1.85-5.38,1.44-7.21-.73l-3.56,2.02c.3,1.17.44,2.24.09,3.43-.54,1.8-2.35,3.34-4.23,3.55-.3.03-.9.03-1.2,0ZM20.79,7.1c1.79-3.22-1.13-7.03-4.72-5.88-2.46.79-3.42,3.66-2.19,5.88.51-.72.99-1.5,1.88-1.8-.39-.77-.6-1.6-.09-2.38,1.15-1.79,3.87-.81,3.63,1.37-.04.39-.28.65-.38,1.01.89.3,1.37,1.08,1.88,1.8ZM17.99,3.3c-.79-.75-2.06.28-1.4,1.21.81,1.14,2.33-.33,1.4-1.21ZM16.87,6c-.78.11-2.04,1.08-2.09,1.9-.03.45,1.4.99,1.8,1.05.78.12,1.58.05,2.31-.25.98-.41,1.28-.66.61-1.61-.6-.85-1.61-1.23-2.63-1.08ZM25.07,9.81l-3.49-1.96c-.14,0-.55.64-.71.79-2.19,2.13-5.98,1.8-7.67-.76l-.11-.04-3.49,1.96c.11.46.32.87.41,1.34.35,1.88-.4,3.84-1.93,4.99-.8.6-1.71.88-2.69,1.03.08,1.25-.15,2.71-.02,3.93.03.24.48.17.69.22,2.68.65,4.44,3.07,3.96,5.84-.08.49-.31.93-.43,1.4l3.49,1.96c.13,0,.58-.67.75-.83,2.16-2.09,5.99-1.74,7.63.79l.11.04,3.49-1.96c-.11-.46-.32-.87-.41-1.34-.48-2.6,1.1-5.13,3.65-5.82.19-.05.9-.11.94-.18-.04-1.24.17-2.74.04-3.95-.03-.24-.48-.17-.69-.22-2.68-.65-4.43-3.08-3.96-5.84.08-.49.31-.93.43-1.4ZM6.59,12.36c.84.34,1.42,1.03,1.84,1.8,2.02-3.28-1.3-7.19-4.92-5.74-2.21.88-3.21,3.75-1.84,5.74.43-.76,1-1.5,1.84-1.8-1.19-1.56.2-3.71,2.11-3.19,1.35.37,1.85,2.11.97,3.19ZM31.16,12.36c.84.3,1.42,1.05,1.84,1.8,1.88-2.88-.74-6.62-4.11-5.99-2.72.51-4.17,3.64-2.65,5.99.42-.78,1-1.46,1.84-1.8-1.03-1.34-.14-3.3,1.59-3.26s2.51,1.95,1.49,3.26ZM4.99,10.13c-1.1.07-1.11,1.69-.16,1.85,1.48.24,1.49-1.93.16-1.85ZM29.62,10.14c-1.32,0-1.2,2.07.22,1.83.96-.16.96-1.83-.22-1.83ZM4.77,13.06c-.92.09-2.15.99-2.27,1.95-.03.27.55.57.79.69,1.4.68,3.15.51,4.31-.55-.21-1.31-1.53-2.21-2.83-2.09ZM29.42,13.06c-.87.06-1.73.63-2.13,1.4-.37.71-.22.83.47,1.19,1.12.59,2.49.59,3.62.04.77-.37.99-.49.55-1.28-.5-.89-1.49-1.43-2.51-1.36ZM8.4,28.35c1.5-2.1.26-5.19-2.18-5.9-3.55-1.03-6.48,2.78-4.55,5.9.39-.77,1.02-1.49,1.84-1.8-.76-.99-.52-2.53.65-3.07,2.01-.93,3.71,1.34,2.43,3.07.79.31,1.5,1.02,1.8,1.8ZM32.97,28.35c1.4-1.86.45-4.71-1.58-5.67-3.62-1.72-7.25,2.28-5.15,5.67.39-.77,1.02-1.49,1.84-1.8-1.3-1.75.47-4.03,2.48-3.04,1.13.56,1.35,2.07.6,3.04.79.31,1.5,1.02,1.8,1.8ZM4.92,24.31c-1.21.17-.96,2.03.27,1.86s.96-2.03-.27-1.86ZM29.49,24.31c-1.21.18-.96,2.03.27,1.86s.94-2.04-.27-1.86ZM4.69,27.25c-.68.09-1.38.52-1.79,1.07-.11.14-.43.77-.44.92,0,.28.96.71,1.2.79,1.33.46,2.86.26,3.93-.69-.2-1.33-1.58-2.27-2.91-2.09ZM29.27,27.25c-.88.12-2.16,1.06-2.2,2-.01.26.9.67,1.13.76,1.16.42,2.46.34,3.52-.32.24-.15.53-.26.45-.57-.3-1.2-1.69-2.04-2.9-1.88ZM20.64,35.41c.21.16.54-.93.56-1.05.4-1.72-.27-3.52-1.82-4.42-3.63-2.09-7.56,1.91-5.47,5.47l.56-.79,1.28-1.06c-1.13-1.65.32-3.74,2.28-3.09,1.27.42,1.64,2.06.88,3.09.68.48,1.46,1,1.73,1.85ZM17.09,31.45c-1.11.23-.81,2.19.63,1.75.88-.27.68-2.02-.63-1.75ZM17.31,34.32c-.99.01-2,.66-2.39,1.57-.08.2-.21.42-.07.62.39.53,2.04.89,2.68.86.53-.02,1.98-.44,2.29-.86.15-.2.02-.42-.07-.62-.4-.93-1.43-1.58-2.44-1.57Z"/>
      <path class="cls-1" d="M16.42,11.93c5.3-.51,9.42,4.17,7.93,9.35-1.81,6.27-10.53,7.08-13.51,1.3-2.28-4.44.56-10.16,5.58-10.64ZM16.81,12.96c-.3.04-1.01.05-1.19.27-.22.26-.74,1.57-.89,1.96-.18.5-.34,1.01-.47,1.52h2.55v-3.75ZM20.49,16.72c-.25-.75-.47-1.52-.79-2.25-.12-.27-.44-1.01-.6-1.2-.21-.26-.91-.25-1.24-.3v3.75h2.63ZM11.63,16.72h1.47l1.01-2.85c-1.09.62-2.04,1.68-2.48,2.85ZM23.05,16.72c-.43-1.14-1.32-2.16-2.37-2.78l.86,2.78h1.5ZM12.9,17.77h-1.62c-.13.15-.17.5-.19.71-.06.66,0,1.36.09,2.01l.1.13h1.54l.08-2.85ZM16.81,17.77h-2.78c-.23.93-.13,1.9-.15,2.85h2.93v-2.85ZM20.72,17.77h-2.86v2.85h2.93c.02-.95.04-1.9-.08-2.85ZM23.42,20.62c.24-.88.18-1.83.06-2.73l-.1-.13h-1.62c.12.95.14,1.9.08,2.85h1.58ZM12.94,21.67h-1.32c.41,1.1,1.26,2.09,2.25,2.7l-.94-2.7ZM16.81,21.67h-2.71c.21,1.27.8,2.42,1.45,3.51l1.26.24v-3.75ZM20.57,21.67h-2.71v3.75c.39-.06,1-.03,1.28-.34.26-.29.77-1.37.94-1.77.09-.21.57-1.58.49-1.65ZM23.05,21.67h-1.32l-.94,2.7c.99-.62,1.85-1.6,2.25-2.7Z"/>
    </g>
  </g>
</svg>