<?xml version="1.0" encoding="UTF-8"?>
<svg id="Layer_2" data-name="Layer 2" xmlns="http://www.w3.org/2000/svg" viewBox="0 0 35.24 35.21">
  <defs>
    <style>
      .cls-1 {
        fill: #fff;
        stroke-width: 0px;
      }
    </style>
  </defs>
  <g id="Layer_1-2" data-name="Layer 1">
    <g>
      <path class="cls-1" d="M31.17,6.34C20.95-5.91.94.73.01,16.49c-.04.73.03,1.47,0,2.2.11.4.09.85.15,1.26.95,7.28,6.6,13.34,13.76,14.86l2.6.39h2.2c14.22-.83,21.66-17.83,12.45-28.87ZM4.81,26.45C-1.94,16.69,4.49,2.88,16.3,2.06c11.61-.81,20.16,10.55,15.73,21.45-4.64,11.39-20.21,13.08-27.22,2.94Z"/>
      <path class="cls-1" d="M15.89,23.15c-.55,0-1,.18-1.37.55s-.55.83-.55,1.37.19,1,.55,1.37.83.55,1.37.55.98-.18,1.35-.55.55-.83.55-1.37-.19-1-.55-1.37-.82-.55-1.35-.55Z"/>
      <path class="cls-1" d="M17.58,8.2c-1.18,0-2.21.23-3.1.69-.89.46-1.57,1.1-2.05,1.93-.47.83-.71,1.77-.71,2.82h2.83c0-.91.27-1.63.82-2.14.55-.51,1.29-.77,2.24-.77s1.69.26,2.23.79c.54.53.81,1.26.81,2.19,0,1.29-.45,2.16-1.36,2.61-.91.46-2.21.69-3.92.69h-.87l.13,4.14h2.61l.11-2.09c1.87,0,3.36-.45,4.49-1.35,1.13-.9,1.69-2.23,1.69-4.01s-.54-3.05-1.62-4.04c-1.08-.99-2.52-1.48-4.32-1.48Z"/>
    </g>
  </g>
</svg>