<?xml version="1.0" encoding="UTF-8"?>
<svg id="Layer_2" data-name="Layer 2" xmlns="http://www.w3.org/2000/svg" viewBox="0 0 35.35 35.35">
  <defs>
    <style>
      .cls-1 {
        fill: #fff;
        stroke-width: 0px;
      }
    </style>
  </defs>
  <g id="Layer_1-2" data-name="Layer 1">
    <g>
      <path class="cls-1" d="M34.62.73c.84.84.77,2.01.69,3.12-.42,6.28-3.49,12.57-7.62,17.2.56,1.54,1.28,3.27,1.09,4.95-.22,2.01-3.22,5.31-4.62,6.79-.49.52-2.07,2.22-2.61,2.43-.92.35-1.82-.05-2.26-.9l-1.76-5.35c-1.7.73-3.16,2.2-4.97.74-2.38-1.91-4.53-4.88-6.89-6.89-1.53-1.86,0-3.32.74-5.08l-5.58-1.79c-.73-.52-1.03-1.36-.68-2.21.2-.5,1.94-2.13,2.44-2.6,1.52-1.44,4.81-4.43,6.89-4.6,1.65-.13,3.29.55,4.81,1.1C18.93,3.52,25.21.47,31.49.04c1.08-.07,2.3-.13,3.12.69ZM32.4,2.14c-10.56.39-19.19,7.72-24.08,16.6-.31.56-.94,1.59-1.12,2.15-.04.13-.1.23-.05.37l6.88,6.91c.15.09.28.03.42-.02.8-.25,2.44-1.27,3.23-1.74,6.94-4.11,12.62-10.31,14.7-18.27.4-1.52.89-3.91.84-5.46-.02-.61-.37-.55-.84-.53ZM2.48,14.34l5.04,1.52c1.49-2.31,3.11-4.55,5.04-6.53-.85-.38-2.14-.8-3.06-.62-1.8.35-5.41,4-6.79,5.37-.11.11-.27.06-.22.25ZM21.15,32.87c.46-.69,1.17-1.24,1.74-1.85.91-.97,3.57-3.95,3.73-5.16.13-.98-.22-2.18-.62-3.07-1.97,1.92-4.21,3.55-6.53,5.04l1.52,4.99.15.05Z"/>
      <path class="cls-1" d="M3.67,31.68c1.56-.19,3.05-.57,4.5-1.17.75-.32,1.67-1.16,2.36-.24.9,1.21-.8,1.89-1.67,2.26-1.76.76-4.19,1.33-6.11,1.38-.67.02-1.24-.4-1.3-1.08-.02-.28.05-.87.08-1.18.15-1.69.64-3.65,1.32-5.2.36-.82.96-2.36,2.12-1.72s.2,1.71-.11,2.46c-.61,1.45-.99,2.93-1.17,4.5Z"/>
      <path class="cls-1" d="M23.58,6.8c6.21-.64,6.69,8.37,1.01,8.87-5.89.52-6.73-8.28-1.01-8.87ZM23.8,8.88c-2.91.38-2.53,5,.64,4.64s2.5-5.05-.64-4.64Z"/>
    </g>
  </g>
</svg>