<?xml version="1.0" encoding="UTF-8"?>
<svg id="Layer_2" data-name="Layer 2" xmlns="http://www.w3.org/2000/svg" xmlns:xlink="http://www.w3.org/1999/xlink" viewBox="0 0 374.96 49.44">
  <defs>
    <style>
      .cls-1 {
        font-family: Arial-BoldMT, Arial;
        font-size: 16.06px;
        font-weight: 700;
      }

      .cls-1, .cls-2 {
        fill: #fff;
      }

      .cls-3 {
        letter-spacing: -.02em;
      }

      .cls-4 {
        fill: #d1d1d1;
        opacity: .27;
        stroke-width: 0px;
      }

      .cls-2 {
        font-family: ArialMT, Arial;
        font-size: 5.23px;
      }

      .cls-5 {
        letter-spacing: -.09em;
      }

      .cls-6 {
        letter-spacing: 0em;
      }
    </style>
  </defs>
  <g id="Layer_2-2" data-name="Layer 2">
    <g>
      <path class="cls-4" d="M7.23,0h117.33v49.44H7.23c-3.99,0-7.23-3.24-7.23-7.23V7.22C0,3.23,3.24,0,7.23,0Z"/>
      <rect class="cls-4" x="127.44" width="120.08" height="49.44"/>
      <path class="cls-4" d="M374.96,7.22v34.99c0,3.99-3.24,7.23-7.23,7.23h-117.33V0h117.33c3.99,0,7.23,3.23,7.23,7.22Z"/>
      <g>
        <g>
          <text class="cls-1" transform="translate(60.28 23.75)"><tspan x="0" y="0">10+</tspan></text>
          <text class="cls-2" transform="translate(61.55 37.77)"><tspan class="cls-5" x="0" y="0">Y</tspan><tspan class="cls-6" x="3.01" y="0">ears of Experience</tspan></text>
        </g>
        <image width="500" height="500" transform="translate(21.08 10.31) scale(.06)" xlink:href="sphere.png"/>
      </g>
      <g>
        <g>
          <text class="cls-1" transform="translate(181.6 23.75)"><tspan x="0" y="0">250+</tspan></text>
          <text class="cls-2" transform="translate(182.87 37.77)"><tspan x="0" y="0">Successfull Projects</tspan></text>
        </g>
        <image width="500" height="500" transform="translate(136.97 4.66) scale(.08)" xlink:href="chain.png"/>
      </g>
      <g>
        <g>
          <text class="cls-1" transform="translate(304.92 23.75)"><tspan x="0" y="0">300%</tspan></text>
          <text class="cls-2" transform="translate(306.19 37.77)"><tspan class="cls-3" x="0" y="0">A</tspan><tspan x="3.39" y="0">verage Clienr Growth</tspan></text>
        </g>
        <image width="1000" height="1000" transform="translate(262.23 7.14) scale(.04)" xlink:href="spirals.png"/>
      </g>
    </g>
  </g>
</svg>