<?xml version="1.0" encoding="UTF-8"?>
<svg id="Layer_2" data-name="Layer 2" xmlns="http://www.w3.org/2000/svg" viewBox="0 0 65.57 41.39">
  <defs>
    <style>
      .cls-1 {
        fill: #fff;
      }
    </style>
  </defs>
  <g id="Layer_2-2" data-name="Layer 2">
    <path class="cls-1" d="M59.2,2.1h-16.61v4.62h16.67l-.07-4.62ZM55.69,33.88c-1.26.83-2.75,1.26-4.26,1.21-2.02.21-4.04-.43-5.57-1.77-1.4-1.59-2.13-3.65-2.03-5.77h21.69c.16-2.2-.03-4.41-.56-6.55-.51-2.04-1.4-3.96-2.62-5.67-1.23-1.66-2.82-3.01-4.65-3.96-2.04-1-4.28-1.51-6.55-1.47-2.13-.02-4.25.4-6.22,1.21-1.81.76-3.44,1.88-4.82,3.28-1.37,1.43-2.43,3.12-3.11,4.98-.73,2-1.1,4.12-1.08,6.26-.03,2.16.32,4.32,1.05,6.36.62,1.85,1.6,3.55,2.88,5.01,1.33,1.44,2.96,2.55,4.78,3.28,2.03.77,4.19,1.15,6.36,1.11,3.04.09,6.05-.7,8.65-2.29,2.62-1.86,4.51-4.59,5.34-7.7h-7.24c-.39,1.03-1.1,1.9-2.03,2.49ZM44.46,20.38c.52-1.65,1.71-3.01,3.28-3.73,1.03-.46,2.15-.69,3.28-.66,1.65-.14,3.28.45,4.46,1.61,1.11,1.36,1.83,3.01,2.06,4.75h-13.6c.05-.67.17-1.32.36-1.97h.16ZM27.13,18.81c1.67-.69,3.12-1.83,4.19-3.28.99-1.54,1.48-3.35,1.41-5.18.06-1.67-.26-3.33-.95-4.85-.58-1.32-1.51-2.45-2.69-3.28-1.25-.86-2.67-1.44-4.16-1.7C23.16.16,21.36-.02,19.56,0H0v41.21h19.98c1.82,0,3.64-.23,5.41-.69,1.67-.43,3.26-1.15,4.68-2.13,1.38-.96,2.51-2.24,3.28-3.73.85-1.67,1.27-3.53,1.21-5.41.06-2.32-.59-4.61-1.87-6.55-1.37-1.95-3.41-3.34-5.73-3.9h.16ZM9.07,7.05h8.48c.78,0,1.56.06,2.33.2.71.1,1.39.35,2,.72.59.33,1.07.84,1.38,1.44.38.73.56,1.54.52,2.36.12,1.43-.45,2.83-1.54,3.77-1.17.81-2.58,1.21-4,1.15h-9.17V7.05ZM24.93,31.42c-.34.67-.85,1.23-1.47,1.64-.65.41-1.38.7-2.13.85-.84.19-1.7.28-2.56.26h-9.83v-11.3h9.83c1.69-.07,3.35.4,4.75,1.34,1.28,1.15,1.94,2.84,1.77,4.55.09.9-.03,1.81-.36,2.65Z"/>
  </g>
</svg>