<?xml version="1.0" encoding="UTF-8"?>
<svg id="Layer_2" data-name="Layer 2" xmlns="http://www.w3.org/2000/svg" viewBox="0 0 22.75 39">
  <defs>
    <style>
      .cls-1 {
        fill: #fff;
      }
    </style>
  </defs>
  <g id="Layer_1-2" data-name="Layer 1">
    <path class="cls-1" d="M21.95.29C20.07.09,18.19,0,16.3,0,10.06,0,6.18,3.98,6.18,10.38v4.35H.93C.42,14.73,0,15.15,0,15.66v7.15c0,.51.42.93.93.93h5.25v14.34c0,.51.42.93.93.93h7.39c.51,0,.93-.42.93-.93v-14.34h5.23c.47,0,.86-.35.92-.81l.92-7.15c.07-.51-.29-.97-.8-1.04-.04,0-.08,0-.12,0h-6.15v-3.64c0-1.8.36-2.55,2.62-2.55h3.79c.51,0,.93-.42.93-.93V1.21c0-.47-.35-.86-.81-.92ZM20.89,6.68h-2.86c-4.01,0-4.47,2.52-4.47,4.41v4.57c0,.51.42.93.93.93h6.03l-.68,5.29h-5.34c-.51,0-.93.42-.93.93v14.34h-5.53v-14.34c0-.51-.42-.93-.93-.93H1.86v-5.29h5.25c.51,0,.93-.42.93-.93v-5.28c0-5.34,3.09-8.52,8.27-8.52,1.87,0,3.57.1,4.59.19v4.63Z"/>
  </g>
</svg>