<?xml version="1.0" encoding="UTF-8"?>
<svg id="Layer_2" data-name="Layer 2" xmlns="http://www.w3.org/2000/svg" viewBox="0 0 50.95 50.36">
  <defs>
    <style>
      .cls-1 {
        fill: #fff;
      }
    </style>
  </defs>
  <g id="Layer_2-2" data-name="Layer 2">
    <path class="cls-1" d="M33.37,50.36c.22-5.37.3-9.82-1.98-14.76,2.26-.48,5.38-1.7,6.92-3.43,6.24-6.99-1.99-13.3-.03-21.21-3.43-1.36-5.82,2.04-7.75,2.45-.47.1-8.7.15-9.54.07-2.16-.19-4.86-3.93-8.31-2.53,1.95,7.93-6.27,14.22-.03,21.21,1.45,1.62,6.96,3.46,6.95,3.94-.92,3.14-2.73,6.64-6.21,4.43-1.31-.83-2.25-5.27-4.64-3.49,2,4.6,2.67,8.42,8.86,7.39v5.91C-5.14,42.84-6.25,9.4,16.65,1.65c32.76-11.08,49.1,36.74,16.72,48.71Z"/>
  </g>
</svg>