<?xml version="1.0" encoding="UTF-8"?>
<svg id="Layer_2" data-name="Layer 2" xmlns="http://www.w3.org/2000/svg" viewBox="0 0 37.51 37.51">
  <defs>
    <style>
      .cls-1 {
        fill: #fff;
      }
    </style>
  </defs>
  <g id="Layer_1-2" data-name="Layer 1">
    <path class="cls-1" d="M12.51,18.76c0-3.45,2.8-6.25,6.25-6.25s6.25,2.8,6.25,6.25-2.8,6.25-6.25,6.25-6.25-2.8-6.25-6.25M9.13,18.76c0,5.32,4.31,9.63,9.63,9.63s9.63-4.31,9.63-9.63-4.31-9.63-9.63-9.63-9.63,4.31-9.63,9.63M26.52,8.74c0,1.24,1.01,2.25,2.25,2.25s2.25-1.01,2.25-2.25-1.01-2.25-2.25-2.25-2.25,1.01-2.25,2.25M11.18,34.03c-1.83-.08-2.82-.39-3.48-.65-.88-.34-1.5-.75-2.16-1.4-.66-.66-1.06-1.28-1.4-2.16-.26-.66-.56-1.65-.65-3.48-.09-1.98-.11-2.57-.11-7.58s.02-5.6.11-7.58c.08-1.83.39-2.82.65-3.48.34-.88.75-1.5,1.4-2.16.66-.66,1.28-1.06,2.16-1.4.66-.26,1.65-.56,3.48-.65,1.98-.09,2.57-.11,7.58-.11s5.6.02,7.58.11c1.83.08,2.82.39,3.48.65.88.34,1.5.75,2.16,1.4.66.66,1.06,1.28,1.4,2.16.26.66.56,1.65.65,3.48.09,1.98.11,2.57.11,7.58s-.02,5.6-.11,7.58c-.08,1.83-.39,2.82-.65,3.48-.34.88-.75,1.5-1.4,2.16s-1.28,1.06-2.16,1.4c-.66.26-1.65.56-3.48.65-1.98.09-2.57.11-7.58.11s-5.6-.02-7.58-.11M11.02.11c-2,.09-3.36.41-4.55.87-1.23.48-2.28,1.12-3.32,2.16-1.04,1.04-1.68,2.09-2.16,3.32-.46,1.19-.78,2.56-.87,4.55-.09,2-.11,2.64-.11,7.73s.02,5.73.11,7.73c.09,2,.41,3.36.87,4.55.48,1.23,1.12,2.28,2.16,3.32,1.04,1.04,2.09,1.68,3.32,2.16,1.19.46,2.56.78,4.55.87,2,.09,2.64.11,7.73.11s5.73-.02,7.73-.11c2-.09,3.36-.41,4.55-.87,1.23-.48,2.28-1.12,3.32-2.16,1.04-1.04,1.68-2.09,2.16-3.32.46-1.19.78-2.56.87-4.55.09-2,.11-2.64.11-7.73s-.02-5.73-.11-7.73c-.09-2-.41-3.36-.87-4.55-.48-1.23-1.12-2.28-2.16-3.32-1.04-1.04-2.09-1.68-3.32-2.16-1.19-.46-2.56-.78-4.55-.87-2-.09-2.64-.11-7.73-.11s-5.73.02-7.73.11"/>
  </g>
</svg>