<?xml version="1.0" encoding="UTF-8"?>
<svg id="Layer_2" data-name="Layer 2" xmlns="http://www.w3.org/2000/svg" viewBox="0 0 30.37 37.96">
  <defs>
    <style>
      .cls-1 {
        fill: #fff;
        fill-rule: evenodd;
      }
    </style>
  </defs>
  <g id="Layer_1-2" data-name="Layer 1">
    <path class="cls-1" d="M15.94,0c-.42,0-.76.34-.76.76v25.81c0,2.1-1.7,3.8-3.8,3.8s-3.8-1.7-3.8-3.8,1.7-3.8,3.8-3.8c.42,0,.76-.34.76-.76v-6.07c0-.42-.34-.76-.76-.76C5.1,15.18,0,20.29,0,26.57s5.1,11.39,11.39,11.39,11.39-5.1,11.39-11.39v-12.53c1.67.76,3.48,1.15,5.31,1.14h1.52c.42,0,.76-.34.76-.76v-6.07c0-.42-.34-.76-.76-.76h-1.52c-2.93,0-5.31-2.38-5.31-5.31V.76c0-.42-.34-.76-.76-.76h-6.07ZM16.7,1.52h4.56v.76c0,3.77,3.06,6.83,6.83,6.83h.76v4.56h-.76c-2.07,0-4.02-.55-5.69-1.53-.36-.21-.83-.09-1.04.28-.07.12-.1.25-.1.38v13.77c0,5.45-4.42,9.87-9.87,9.87S1.52,32.02,1.52,26.57s4.02-9.45,9.11-9.84v4.58c-2.57.37-4.56,2.59-4.56,5.26,0,2.93,2.38,5.31,5.31,5.31s5.31-2.38,5.31-5.31V1.52Z"/>
  </g>
</svg>