<?xml version="1.0" encoding="UTF-8"?>
<svg id="Layer_2" data-name="Layer 2" xmlns="http://www.w3.org/2000/svg" viewBox="0 0 38.03 38.25">
  <defs>
    <style>
      .cls-1 {
        fill: #fff;
      }
    </style>
  </defs>
  <g id="Layer_1-2" data-name="Layer 1">
    <path class="cls-1" d="M27.89,22.97c-.38-.19-2.87-1.34-3.25-1.53s-.76-.19-1.15.19-1.15,1.53-1.53,1.91c-.19.38-.57.38-.96.19-1.34-.57-2.67-1.34-3.82-2.29-.96-.96-1.91-2.1-2.67-3.25-.19-.38,0-.76.19-.96s.38-.57.76-.76c.19-.19.38-.57.38-.76.19-.19.19-.57,0-.76-.19-.19-1.15-2.48-1.53-3.44-.19-1.34-.57-1.34-.96-1.34h-.96c-.38,0-.96.38-1.15.57-1.15,1.15-1.72,2.48-1.72,4.01.19,1.72.76,3.44,1.91,4.97,2.1,3.06,4.78,5.54,8.02,7.07.96.38,1.72.76,2.67.96.96.38,1.91.38,3.06.19,1.34-.19,2.48-1.15,3.25-2.29.38-.76.38-1.53.19-2.29l-.76-.38M32.67,5.59c-7.45-7.45-19.49-7.45-26.94,0C-.38,11.7-1.53,21.06,2.67,28.51l-2.67,9.74,10.12-2.67c2.87,1.53,5.92,2.29,8.98,2.29,10.51,0,18.91-8.41,18.91-18.91.19-4.97-1.91-9.74-5.35-13.37M27.51,32.33c-2.48,1.53-5.35,2.48-8.41,2.48-2.87,0-5.54-.76-8.02-2.1l-.57-.38-5.92,1.53,1.53-5.73-.38-.57C1.15,19.92,3.44,10.36,10.89,5.59c7.45-4.78,17-2.29,21.59,4.97,4.58,7.45,2.48,17.19-4.97,21.78"/>
  </g>
</svg>