<?xml version="1.0" encoding="UTF-8"?>
<svg id="Layer_2" data-name="Layer 2" xmlns="http://www.w3.org/2000/svg" viewBox="0 0 36.04 37.96">
  <defs>
    <style>
      .cls-1 {
        fill: #fff;
      }
    </style>
  </defs>
  <g id="Layer_1-2" data-name="Layer 1">
    <path class="cls-1" d="M34.86,35.61h-8.16L3.43,2.35h5.91l11.92,17.04,10.15,14.51c.23.33.59.5.96.5.23,0,.47-.07.67-.21.53-.37.66-1.1.29-1.64l-10.15-14.51s0,0,0,0l-1.54-2.19L31.44,1.85c.37-.53.24-1.26-.29-1.64-.53-.37-1.26-.24-1.64.29l-9.3,13.29L10.91.5C10.69.19,10.33,0,9.95,0H1.17C.74,0,.34.24.13.63s-.17.86.08,1.22l14.18,20.27-9.79,14c-.37.53-.24,1.26.29,1.64.21.14.44.21.67.21.37,0,.74-.17.96-.5l9.3-13.29,9.3,13.29c.22.31.58.5.96.5h8.78c.65,0,1.17-.53,1.17-1.17s-.53-1.17-1.17-1.17Z"/>
  </g>
</svg>