<?xml version="1.0" encoding="UTF-8"?>
<svg id="Layer_2" data-name="Layer 2" xmlns="http://www.w3.org/2000/svg" viewBox="0 0 152.86 36.14">
  <defs>
    <style>
      .cls-1 {
        fill: #95e718;
      }
    </style>
  </defs>
  <g id="Layer_1-2" data-name="Layer 1">
    <g>
      <path class="cls-1" d="M31.8,8.94c-.49.44-1.24.41-1.68-.08-.44-.49-.41-1.24.08-1.68l7.88-7.18-8.91,4.15c-2.99-2.26-6.71-3.61-10.74-3.61C8.6.55.63,8.51.63,18.34c0,3.76,1.17,7.26,3.17,10.13l-3.8,6.05,6.26-5.7c.48-.44,1.24-.41,1.68.08.44.49.41,1.24-.08,1.68l-5.31,4.84,5.51-2.61c2.92,2.1,6.5,3.33,10.36,3.33,9.83,0,17.79-7.97,17.79-17.79,0-3.23-.86-6.26-2.37-8.87l2.8-4.95-4.85,4.43ZM17.64,10.07l-3.59,2.07-3.19,1.84v8.73l6.74,3.89.04.02v4.72l-.27-.16-2.66-1.53-.38-.22-3.48-2.01-3.03-1.75-1.06-.61v-8.73s0-4.72,0-4.72l4.09-2.36,3.49-2.01,3.04-1.76.25-.15v4.72ZM30.08,14.83l-.81,1.04-.32.41-1.61,2.07.87,1.13.68.89.36.47.84,1.09v3.15l-1.06.61-3.03,1.75-3.48,2.01-3.03,1.75-.29.17v-4.72l.06-.03,6.74-3.89-1.82-2.32h-4.92v-.02h-.06v-4.09h4.95s1.85-2.3,1.85-2.3h0s-6.74-3.89-6.74-3.89l-.06-.03v-4.72l.29.17,3.04,1.76,3.47,2,4.09,2.36v3.21Z"/>
      <g>
        <path class="cls-1" d="M46.54,13.37c.86-1.51,2.04-2.69,3.53-3.53,1.49-.84,3.17-1.26,5.02-1.26,2.17,0,4.07.56,5.7,1.67,1.63,1.11,2.77,2.65,3.42,4.62h-4.48c-.44-.93-1.07-1.62-1.88-2.09-.81-.46-1.74-.69-2.79-.69-1.13,0-2.14.26-3.02.79-.88.53-1.57,1.27-2.06,2.24-.49.96-.74,2.1-.74,3.39s.25,2.41.74,3.38c.49.97,1.18,1.72,2.06,2.25.88.53,1.89.79,3.02.79,1.06,0,1.99-.24,2.79-.71.81-.47,1.43-1.17,1.88-2.1h4.48c-.65,1.98-1.78,3.53-3.41,4.63-1.62,1.1-3.53,1.65-5.71,1.65-1.85,0-3.53-.42-5.02-1.27-1.49-.84-2.67-2.02-3.53-3.52-.86-1.5-1.29-3.21-1.29-5.12s.43-3.62,1.29-5.13Z"/>
        <path class="cls-1" d="M79.34,13.37c.91.51,1.62,1.26,2.13,2.25.51.99.76,2.18.76,3.57v9.04h-3.89v-8.51c0-1.22-.31-2.16-.92-2.82s-1.45-.99-2.5-.99-1.92.33-2.54.99c-.62.66-.93,1.6-.93,2.82v8.51h-3.89V7.65h3.89v7.09c.5-.67,1.17-1.19,2-1.57.83-.38,1.76-.57,2.78-.57,1.17,0,2.21.25,3.11.76Z"/>
        <path class="cls-1" d="M85.86,16.33c.62-1.21,1.46-2.13,2.53-2.78,1.07-.65,2.26-.97,3.57-.97,1.15,0,2.16.23,3.02.7.86.46,1.55,1.05,2.07,1.75v-2.2h3.92v15.41h-3.92v-2.25c-.5.72-1.19,1.32-2.07,1.79-.88.47-1.9.71-3.04.71-1.3,0-2.48-.33-3.55-1-1.07-.67-1.91-1.61-2.53-2.82-.62-1.21-.93-2.61-.93-4.18s.31-2.94.93-4.14ZM96.49,18.1c-.37-.68-.87-1.2-1.5-1.56s-1.31-.54-2.03-.54-1.39.18-2,.53c-.61.35-1.11.87-1.49,1.54s-.57,1.48-.57,2.41.19,1.74.57,2.43.88,1.23,1.5,1.6c.62.37,1.28.56,1.99.56s1.4-.18,2.03-.54,1.13-.88,1.5-1.56c.37-.68.56-1.49.56-2.43s-.19-1.76-.56-2.43Z"/>
        <path class="cls-1" d="M110.63,13.3c.81-.46,1.73-.69,2.77-.69v4.09h-1.03c-1.22,0-2.15.29-2.77.86-.62.58-.93,1.58-.93,3v7.67h-3.89v-15.41h3.89v2.39c.5-.82,1.15-1.46,1.96-1.92Z"/>
        <path class="cls-1" d="M119.91,7.65v20.58h-3.89V7.65h3.89Z"/>
        <path class="cls-1" d="M137.95,21.7h-11.26c.09,1.11.48,1.98,1.17,2.61.69.63,1.53.95,2.53.95,1.45,0,2.47-.62,3.09-1.86h4.2c-.44,1.48-1.3,2.7-2.56,3.66-1.26.96-2.81,1.43-4.64,1.43-1.48,0-2.81-.33-3.99-.99-1.18-.66-2.09-1.59-2.75-2.79s-.99-2.6-.99-4.17.32-2.99.97-4.2,1.56-2.13,2.73-2.78c1.17-.65,2.51-.97,4.03-.97s2.78.32,3.93.95c1.16.63,2.06,1.53,2.7,2.68.64,1.16.96,2.49.96,3.99,0,.56-.04,1.06-.11,1.5ZM134.03,19.08c-.02-1-.38-1.8-1.08-2.41-.71-.6-1.57-.9-2.59-.9-.96,0-1.78.29-2.43.88s-1.06,1.39-1.21,2.43h7.31Z"/>
        <path class="cls-1" d="M143.4,27.8c-1-.45-1.79-1.07-2.38-1.85s-.9-1.64-.96-2.59h3.92c.07.59.37,1.08.88,1.47.51.39,1.14.58,1.91.58s1.32-.15,1.74-.44c.42-.3.63-.68.63-1.14,0-.5-.25-.88-.76-1.13s-1.32-.52-2.43-.82c-1.15-.28-2.09-.57-2.82-.86-.73-.3-1.36-.75-1.89-1.36s-.79-1.44-.79-2.47c0-.85.25-1.63.74-2.34.49-.7,1.2-1.26,2.11-1.67.92-.41,2-.61,3.24-.61,1.84,0,3.3.46,4.39,1.38,1.09.92,1.7,2.15,1.81,3.71h-3.73c-.06-.61-.31-1.1-.76-1.46-.46-.36-1.06-.54-1.82-.54-.71,0-1.25.13-1.63.39-.38.26-.57.62-.57,1.08,0,.52.26.91.78,1.18.52.27,1.33.54,2.42.82,1.11.28,2.03.57,2.75.86.72.3,1.35.75,1.88,1.38s.8,1.44.82,2.46c0,.89-.25,1.69-.74,2.39-.49.71-1.2,1.26-2.11,1.65s-1.99.6-3.21.6-2.39-.23-3.39-.68Z"/>
      </g>
    </g>
  </g>
</svg>